<svg xmlns="http://www.w3.org/2000/svg" viewBox="0 0 50 50" enable-background="new 0 0 50 50"><path fill="#fff" d="M25 42.1c-9.4 0-17.1-7.7-17.1-17.1s7.7-17.1 17.1-17.1c9.4 0 17.1 7.7 17.1 17.1s-7.7 17.1-17.1 17.1zm0-33c-8.8 0-15.9 7.1-15.9 15.9s7.1 15.9 15.9 15.9 15.9-7.1 15.9-15.9-7.1-15.9-15.9-15.9z"/><path fill="#fff" d="M25 19.2c-4 0-7.4-.5-7.6-1-.1.1-.1.3-.1.5v15c0 1 .8 1.9 1.9 1.9h11.8c1 0 1.9-.8 1.9-1.9v-15.2c0-.1 0-.3-.1-.3-.7.5-3.9 1-7.8 1z"/><path fill="#fff" d="M25 19.4c-.8 0-7.7 0-7.7-1.4 0-1.3 7-1.4 7.7-1.4s7.7 0 7.7 1.4-7 1.4-7.7 1.4zm-7.2-1.3c.5.3 3.1.8 7.1.8s6.7-.5 7.1-.8c-.5-.3-3.1-.8-7.1-.8s-6.6.4-7.1.8z"/><ellipse fill="#fff" cx="24.9" cy="16.5" rx="1.9" ry=".3"/><ellipse fill="#fff" cx="24.9" cy="15" rx="2.6" ry=".4"/><rect x="22.9" y="16.5" fill="#fff" width="3.9" height="2.1"/><rect x="23.4" y="15.6" fill="#fff" width="2.9" height="1.3"/><polygon fill="#fff" points="23.2,16.3 19,17.5 19,18 23.2,16.8"/><rect x="19" y="17.5" fill="#fff" width=".8" height=".6"/><path fill="#fff" d="M26.7 15.7h-3.6c-.4 0-.8-.4-.8-.8h5.3c-.1.5-.5.8-.9.8z"/></svg>