<svg xmlns="http://www.w3.org/2000/svg" viewBox="0 0 50 50" enable-background="new 0 0 50 50"><path fill="#fff" d="M25 42.1c-9.4 0-17.1-7.7-17.1-17.1s7.7-17.1 17.1-17.1c9.4 0 17.1 7.7 17.1 17.1s-7.7 17.1-17.1 17.1zm0-33c-8.8 0-15.9 7.1-15.9 15.9s7.1 15.9 15.9 15.9 15.9-7.1 15.9-15.9-7.1-15.9-15.9-15.9z"/><path fill="#fff" d="M32.3 22.1l-.1-.6c-2.1.8-4.7 1.3-7.3 1.3-2.7 0-5.2-.4-7.4-1.3-.1.2-.1.4-.1.6-.3-.1-.4-.2-.4-.2v11.1c0 2.5 1.8 4.4 4.3 4.4h6.9c2.5 0 4.6-1.9 4.6-4.4v-11.1s-.2 0-.5.2zm-10 10.1h-.8l-.4-1.2c-.1-.3-.1-.4-.2-.6s-.1-.4-.1-.5l-.1.5-.1.4-.1.3-.4 1.1h-.9l1.1-3.2-1.1-3.1h.8l.4 1.3c.2.4.3.8.3 1.1l.1-.4c.1-.1.1-.3.1-.4l.1-.3.4-1.3h.8l-1 3.1 1.1 3.2zm4 0h-.8l-.4-1.2c-.1-.3-.1-.4-.2-.6-.1-.2-.1-.4-.1-.5l-.1.5-.1.4-.1.3-.4 1.1h-.9l1.1-3.2-1.1-3.1h.8l.4 1.3c.2.4.3.8.3 1.1l.1-.4c.1-.1.1-.3.1-.4l.1-.3.4-1.3h.8l-1.2 3.2 1.3 3.1zm4.1 0h-.8l-.4-1.2c-.1-.3-.1-.4-.2-.6 0-.2 0-.4-.1-.5l-.1.5-.1.4-.1.3-.4 1.1h-.9l1.1-3.2-1.1-3.1h.8l.4 1.3c.2.4.3.8.3 1.1l.1-.4c.1-.1.1-.3.1-.4l.1-.3.4-1.3h.8l-.9 3.1 1 3.2z"/><path fill="#fff" d="M31.8 21c-.8-1-2.7-1.8-5.2-2v-5h-.6l.4-1.3h-2.9l.4 1.3h-.5v1.6c-1.3-.2-1.8 0-2.5.6-.8.8-.9 2.1-.3 3.2-1.2.4-2.2.9-2.8 1.5 2 .8 4.4 1.2 7 1.2 2.7 0 5-.4 7-1.1zm-8.4-2c-1.3.1-1.2.1-1.7.3-.6-.8-.8-1.6-.2-2.5.3-.4.6-.5 1.9-.4v2.6z"/></svg>