<svg xmlns="http://www.w3.org/2000/svg" viewBox="0 0 50 50" enable-background="new 0 0 50 50"><path fill="#fff" d="M25 42.1c-9.4 0-17.1-7.7-17.1-17.1s7.7-17.1 17.1-17.1c9.4 0 17.1 7.7 17.1 17.1s-7.7 17.1-17.1 17.1zm0-33c-8.8 0-15.9 7.1-15.9 15.9s7.1 15.9 15.9 15.9 15.9-7.1 15.9-15.9-7.1-15.9-15.9-15.9z"/><g fill="#fff"><path d="M33.8 32.6l-5.4-2.1 5.3-2.4c.5-.2.7-.8.5-1.3l-.2-.5c-.2-.5-.8-.7-1.3-.5l-7.7 3.5-7.8-3c-.5-.2-1.1.1-1.3.6l-.2.5c-.2.5.1 1.1.6 1.3l5.4 2.1-5.3 2.4c-.5.2-.7.8-.5 1.3l.2.5c.2.5.8.7 1.3.5l7.6-3.5 7.8 2.9c.5.2 1.1-.1 1.3-.6l.2-.5c.2-.5 0-1-.5-1.2zM25.1 26.1c2.2 0 4.1-1.8 4-4-.2-4.6-4.3-8.7-4.8-7.3-.2.5 0 1.8 1 4.7.7 2.1-4 1.8-4.3 2.6-.6 2.1 1.9 4 4.1 4z"/></g></svg>