<?xml version="1.0" encoding="utf-8"?>
<!-- Generator: Adobe Illustrator 19.1.0, SVG Export Plug-In . SVG Version: 6.00 Build 0)  -->
<svg version="1.1" id="Layer_1" xmlns="http://www.w3.org/2000/svg" xmlns:xlink="http://www.w3.org/1999/xlink" x="0px" y="0px"
	 viewBox="0 0 50 50" enable-background="new 0 0 50 50" xml:space="preserve">
<g id="Layer_2">
</g>
<g>
	<path fill="#FFFFFF" d="M25,42.1c-9.4,0-17.1-7.7-17.1-17.1S15.6,7.9,25,7.9c9.4,0,17.1,7.7,17.1,17.1S34.4,42.1,25,42.1z M25,9.1
		C16.2,9.1,9.1,16.2,9.1,25S16.2,40.9,25,40.9S40.9,33.8,40.9,25S33.8,9.1,25,9.1z"/>
</g>
<g id="Layer_2_1_">
</g>
<g>
	<g>
		<path fill="#FFFFFF" d="M32.3,22.1c0-0.2-0.1-0.4-0.1-0.6c-2.1,0.8-4.7,1.3-7.3,1.3c-2.7,0-5.2-0.4-7.4-1.3
			c-0.1,0.2-0.1,0.4-0.1,0.6c-0.3-0.1-0.4-0.2-0.4-0.2v11.1c0,2.5,1.8,4.4,4.3,4.4h6.9c2.5,0,4.6-1.9,4.6-4.4V21.9
			C32.8,21.9,32.6,21.9,32.3,22.1z M22.3,32.2h-0.8L21.1,31c-0.1-0.3-0.1-0.4-0.2-0.6s-0.1-0.4-0.1-0.5c0,0.2-0.1,0.3-0.1,0.5
			l-0.1,0.4l-0.1,0.3l-0.4,1.1h-0.9l1.1-3.2l-1.1-3.1h0.8l0.4,1.3c0.2,0.4,0.3,0.8,0.3,1.1c0-0.1,0.1-0.3,0.1-0.4
			c0.1-0.1,0.1-0.3,0.1-0.4l0.1-0.3l0.4-1.3h0.8L21.2,29L22.3,32.2z M26.3,32.2h-0.8L25.1,31c-0.1-0.3-0.1-0.4-0.2-0.6
			c-0.1-0.2-0.1-0.4-0.1-0.5c0,0.2-0.1,0.3-0.1,0.5l-0.1,0.4l-0.1,0.3l-0.4,1.1h-0.9l1.1-3.2l-1.1-3.1h0.8l0.4,1.3
			c0.2,0.4,0.3,0.8,0.3,1.1c0-0.1,0.1-0.3,0.1-0.4c0.1-0.1,0.1-0.3,0.1-0.4l0.1-0.3l0.4-1.3h0.8l-1.2,3.2L26.3,32.2z M30.4,32.2
			h-0.8L29.2,31c-0.1-0.3-0.1-0.4-0.2-0.6C29,30.2,29,30,28.9,29.9c0,0.2-0.1,0.3-0.1,0.5l-0.1,0.4l-0.1,0.3l-0.4,1.1h-0.9l1.1-3.2
			l-1.1-3.1h0.8l0.4,1.3c0.2,0.4,0.3,0.8,0.3,1.1c0-0.1,0.1-0.3,0.1-0.4c0.1-0.1,0.1-0.3,0.1-0.4l0.1-0.3l0.4-1.3h0.8L29.4,29
			L30.4,32.2z"/>
	</g>
	<g>
		<path fill="#FFFFFF" d="M31.8,21c-0.8-1-2.7-1.8-5.2-2v-5h-0.6l0.4-1.3h-2.9l0.4,1.3h-0.5v1.6c-1.3-0.2-1.8,0-2.5,0.6
			c-0.8,0.8-0.9,2.1-0.3,3.2c-1.2,0.4-2.2,0.9-2.8,1.5c2,0.8,4.4,1.2,7,1.2C27.5,22.1,29.8,21.7,31.8,21z M23.4,19
			c-1.3,0.1-1.2,0.1-1.7,0.3c-0.6-0.8-0.8-1.6-0.2-2.5c0.3-0.4,0.6-0.5,1.9-0.4V19z"/>
	</g>
</g>
</svg>
