<?xml version="1.0" encoding="utf-8"?>
<!-- Generator: Adobe Illustrator 19.1.0, SVG Export Plug-In . SVG Version: 6.00 Build 0)  -->
<svg version="1.1" id="Layer_1" xmlns="http://www.w3.org/2000/svg" xmlns:xlink="http://www.w3.org/1999/xlink" x="0px" y="0px"
	 viewBox="0 0 50 50" enable-background="new 0 0 50 50" xml:space="preserve">
<g id="Layer_2">
</g>
<g>
	<path fill="#FFFFFF" d="M25,42.1c-9.4,0-17.1-7.7-17.1-17.1S15.6,7.9,25,7.9c9.4,0,17.1,7.7,17.1,17.1S34.4,42.1,25,42.1z M25,9.1
		C16.2,9.1,9.1,16.2,9.1,25S16.2,40.9,25,40.9S40.9,33.8,40.9,25S33.8,9.1,25,9.1z"/>
</g>
<g>
	<path fill="#FFFFFF" d="M33.8,32.6l-5.4-2.1l5.3-2.4c0.5-0.2,0.7-0.8,0.5-1.3l-0.2-0.5c-0.2-0.5-0.8-0.7-1.3-0.5L25,29.3l-7.8-3
		c-0.5-0.2-1.1,0.1-1.3,0.6l-0.2,0.5c-0.2,0.5,0.1,1.1,0.6,1.3l5.4,2.1l-5.3,2.4c-0.5,0.2-0.7,0.8-0.5,1.3l0.2,0.5
		c0.2,0.5,0.8,0.7,1.3,0.5L25,32l7.8,2.9c0.5,0.2,1.1-0.1,1.3-0.6l0.2-0.5C34.5,33.3,34.3,32.8,33.8,32.6z"/>
	<path fill="#FFFFFF" d="M25.1,26.1c2.2,0,4.1-1.8,4-4c-0.2-4.6-4.3-8.7-4.8-7.3c-0.2,0.5,0,1.8,1,4.7c0.7,2.1-4,1.8-4.3,2.6
		C20.4,24.2,22.9,26.1,25.1,26.1z"/>
</g>
<g id="Layer_2_1_">
</g>
</svg>
