<?xml version="1.0" encoding="utf-8"?>
<!-- Generator: Adobe Illustrator 19.1.0, SVG Export Plug-In . SVG Version: 6.00 Build 0)  -->
<svg version="1.1" id="Layer_1" xmlns="http://www.w3.org/2000/svg" xmlns:xlink="http://www.w3.org/1999/xlink" x="0px" y="0px"
	 viewBox="0 0 50 50" enable-background="new 0 0 50 50" xml:space="preserve">
<g id="Layer_2">
</g>
<g>
	<path fill="#FFFFFF" d="M25,42.1c-9.4,0-17.1-7.7-17.1-17.1S15.6,7.9,25,7.9c9.4,0,17.1,7.7,17.1,17.1S34.4,42.1,25,42.1z M25,9.1
		C16.2,9.1,9.1,16.2,9.1,25S16.2,40.9,25,40.9S40.9,33.8,40.9,25S33.8,9.1,25,9.1z"/>
</g>
<g id="Layer_2_1_">
</g>
<g>
	<g>
		<path fill="#FFFFFF" d="M25,19.2c-4,0-7.4-0.5-7.6-1c-0.1,0.1-0.1,0.3-0.1,0.5v15c0,1,0.8,1.9,1.9,1.9h11.8c1,0,1.9-0.8,1.9-1.9
			V18.5c0-0.1,0-0.3-0.1-0.3C32.1,18.7,28.9,19.2,25,19.2z"/>
	</g>
	<g>
		<path fill="#FFFFFF" d="M25,19.4c-0.8,0-7.7,0-7.7-1.4c0-1.3,7-1.4,7.7-1.4s7.7,0,7.7,1.4C32.7,19.4,25.7,19.4,25,19.4z
			 M17.8,18.1c0.5,0.3,3.1,0.8,7.1,0.8s6.7-0.5,7.1-0.8c-0.5-0.3-3.1-0.8-7.1-0.8S18.3,17.7,17.8,18.1z"/>
	</g>
	<g>
		<ellipse fill="#FFFFFF" cx="24.9" cy="16.5" rx="1.9" ry="0.3"/>
	</g>
	<g>
		<ellipse fill="#FFFFFF" cx="24.9" cy="15" rx="2.6" ry="0.4"/>
	</g>
	<g>
		<rect x="22.9" y="16.5" fill="#FFFFFF" width="3.9" height="2.1"/>
	</g>
	<g>
		<rect x="23.4" y="15.6" fill="#FFFFFF" width="2.9" height="1.3"/>
	</g>
	<g>
		<polygon fill="#FFFFFF" points="23.2,16.3 19,17.5 19,18 23.2,16.8 		"/>
	</g>
	<g>
		<rect x="19" y="17.5" fill="#FFFFFF" width="0.8" height="0.6"/>
	</g>
	<g>
		<path fill="#FFFFFF" d="M26.7,15.7h-3.6c-0.4,0-0.8-0.4-0.8-0.8l0,0h5.3l0,0C27.5,15.4,27.1,15.7,26.7,15.7z"/>
	</g>
</g>
</svg>
